<svg width="23" height="23" viewBox="0 0 23 23" fill="none" xmlns="http://www.w3.org/2000/svg">
<path d="M7.33464 5.86737H6.41797C4.89919 5.86737 3.66797 7.09859 3.66797 8.61737V17.784C3.66797 19.3028 4.89919 20.534 6.41797 20.534H13.7513C15.2701 20.534 16.5013 19.3028 16.5013 17.784V16.8674H14.668V17.784C14.668 18.2903 14.2576 18.7007 13.7513 18.7007H6.41797C5.91171 18.7007 5.5013 18.2903 5.5013 17.784V8.61737C5.5013 8.11111 5.91171 7.7007 6.41797 7.7007H7.33464V5.86737Z" fill="#581689"/>
<path fill-rule="evenodd" clip-rule="evenodd" d="M20.1593 6.78404C20.1653 6.85776 20.1683 6.93195 20.1683 7.00646V14.1174C20.1683 15.6362 18.9371 16.8674 17.4183 16.8674H10.085C8.56618 16.8674 7.33496 15.6362 7.33496 14.1174V4.9507C7.33496 3.43192 8.56618 2.2007 10.085 2.2007H15.3625C15.437 2.2007 15.5112 2.20373 15.585 2.20971V2.2007L15.5948 2.21052C16.239 2.2651 16.8464 2.54546 17.3071 3.00616L19.3628 5.06191C19.8235 5.52262 20.1039 6.12995 20.1585 6.77422L20.1683 6.78404H20.1593ZM17.4183 15.034H10.085C9.5787 15.034 9.16829 14.6236 9.16829 14.1174V4.9507C9.16829 4.44444 9.5787 4.03404 10.085 4.03404H15.3625C15.4382 4.03404 15.5128 4.04338 15.585 4.06143V4.9507C15.585 5.96322 16.4058 6.78404 17.4183 6.78404H18.3076C18.3256 6.85618 18.335 6.93084 18.335 7.00646V14.1174C18.335 14.6236 17.9246 15.034 17.4183 15.034Z" fill="#581689"/>
</svg>
