<svg width="34" height="34" viewBox="0 0 34 34" fill="none" xmlns="http://www.w3.org/2000/svg">
<path d="M27.6392 8.28748L19.2242 3.42831C17.8501 2.63498 16.1501 2.63498 14.7617 3.42831L6.36088 8.28748C4.98672 9.08081 4.13672 10.5541 4.13672 12.155V21.845C4.13672 23.4316 4.98672 24.905 6.36088 25.7125L14.7759 30.5716C16.1501 31.365 17.8501 31.365 19.2384 30.5716L27.6534 25.7125C29.0276 24.9191 29.8776 23.4458 29.8776 21.845V12.155C29.8634 10.5541 29.0134 9.09498 27.6392 8.28748ZM15.9376 10.9791C15.9376 10.3983 16.4192 9.91665 17.0001 9.91665C17.5809 9.91665 18.0626 10.3983 18.0626 10.9791V18.4166C18.0626 18.9975 17.5809 19.4791 17.0001 19.4791C16.4192 19.4791 15.9376 18.9975 15.9376 18.4166V10.9791ZM18.3034 23.5591C18.2326 23.7291 18.1334 23.885 18.0059 24.0266C17.7367 24.2958 17.3826 24.4375 17.0001 24.4375C16.8159 24.4375 16.6317 24.395 16.4617 24.3241C16.2776 24.2533 16.1359 24.1541 15.9942 24.0266C15.8667 23.885 15.7676 23.7291 15.6826 23.5591C15.6117 23.3891 15.5834 23.205 15.5834 23.0208C15.5834 22.6525 15.7251 22.2841 15.9942 22.015C16.1359 21.8875 16.2776 21.7883 16.4617 21.7175C16.9859 21.4908 17.6092 21.6183 18.0059 22.015C18.1334 22.1566 18.2326 22.2983 18.3034 22.4825C18.3742 22.6525 18.4167 22.8366 18.4167 23.0208C18.4167 23.205 18.3742 23.3891 18.3034 23.5591Z" fill="#F3000B"/>
</svg>
